<?xml version="1.0" standalone="no"?>
<!DOCTYPE svg PUBLIC "-//W3C//DTD SVG 20010904//EN"
 "http://www.w3.org/TR/2001/REC-SVG-20010904/DTD/svg10.dtd">
<svg version="1.0" xmlns="http://www.w3.org/2000/svg"
 width="512.000000pt" height="512.000000pt" viewBox="0 0 512.000000 512.000000"
 preserveAspectRatio="xMidYMid meet">
<metadata>
Created by potrace 1.11, written by Peter Selinger 2001-2013
</metadata>
<g transform="translate(0.000000,512.000000) scale(0.100000,-0.100000)"
fill="#000000" stroke="none">
<path d="M1008 4712 c-14 -3 -50 -149 -153 -632 -40 -184 -118 -534 -126 -565
-6 -22 -12 -49 -14 -60 -1 -11 -7 -40 -13 -65 -12 -51 -48 -212 -56 -250 -3
-14 -8 -36 -10 -50 -3 -14 -8 -34 -10 -45 -2 -11 -9 -40 -16 -65 -7 -25 -14
-56 -16 -70 -2 -14 -5 -34 -8 -45 -3 -11 -14 -63 -26 -115 -12 -52 -28 -124
-36 -160 -23 -100 -27 -119 -39 -175 -6 -31 -45 -208 -50 -230 -3 -11 -7 -33
-11 -50 -3 -16 -14 -66 -24 -110 -29 -120 -98 -431 -118 -530 -12 -58 -64
-292 -121 -545 -21 -96 -37 -178 -34 -182 2 -5 0 -8 -4 -8 -5 0 -9 -8 -10 -18
-1 -9 -15 -79 -32 -153 -17 -75 -33 -151 -36 -169 -3 -17 -7 -37 -8 -42 -1 -8
155 -11 508 -12 281 -1 520 0 532 2 18 3 23 14 32 66 6 33 13 75 16 91 5 26
40 210 51 270 2 11 7 36 10 55 4 19 8 44 11 55 2 11 6 36 9 55 3 19 7 42 9 50
2 8 7 31 10 50 3 19 12 67 20 105 8 39 16 81 18 95 l4 25 371 3 c205 1 372 1
372 0 0 -2 7 -39 16 -83 34 -177 65 -342 70 -375 3 -19 7 -37 9 -40 2 -3 6
-24 9 -46 7 -45 11 -67 26 -139 6 -27 12 -63 15 -80 10 -73 28 -150 35 -155 6
-4 1760 -5 1820 -1 14 1 15 103 16 894 l0 892 22 44 c12 25 22 48 22 53 0 4
11 31 24 60 23 52 38 88 41 98 1 3 9 23 19 45 16 36 69 164 338 810 43 105 85
204 93 220 7 17 23 55 35 85 12 30 27 69 35 85 11 26 41 98 76 183 20 48 29
69 53 125 14 32 26 59 26 61 0 2 8 21 17 42 9 22 17 41 18 44 1 3 7 16 12 30
6 14 34 81 62 150 29 69 56 134 61 145 26 55 110 261 110 270 0 7 -194 10
-567 9 l-566 0 -13 -30 c-14 -34 -40 -104 -82 -224 -17 -47 -49 -137 -72 -200
-23 -63 -44 -122 -46 -130 -2 -8 -42 -121 -89 -250 -48 -129 -87 -239 -89
-245 -6 -25 -39 -121 -45 -130 -4 -5 -18 -43 -31 -82 -13 -40 -27 -73 -30 -73
-5 0 -20 37 -103 250 -25 63 -75 192 -112 285 -37 94 -96 244 -131 335 -36 91
-69 174 -74 185 -4 11 -15 36 -23 55 -8 19 -31 80 -52 135 -21 55 -42 104 -47
110 -7 8 -1866 16 -1910 7z m637 -1228 c3 -22 9 -61 15 -89 17 -88 21 -109 25
-140 5 -39 14 -96 26 -170 6 -33 13 -76 15 -95 3 -19 7 -46 10 -60 3 -14 9
-54 15 -90 5 -36 16 -105 25 -155 8 -49 17 -103 20 -120 3 -16 7 -42 9 -56 3
-14 7 -42 9 -62 5 -36 10 -70 21 -132 3 -16 8 -43 10 -60 2 -16 15 -97 29
-180 14 -82 27 -164 29 -181 l5 -31 -267 1 -266 1 0 25 c-1 14 3 48 7 75 7 47
10 64 23 140 8 45 23 138 40 250 9 55 18 111 20 125 14 84 45 281 50 315 3 23
8 52 10 65 3 14 7 41 10 60 3 19 7 46 9 60 8 41 38 223 42 255 2 17 8 55 14
85 19 116 27 165 29 194 2 30 11 13 16 -30z"/>
</g>
</svg>
